<svg version="1.1" width="40" height="40" viewBox="0 0 40 40" xmlns="http://www.w3.org/2000/svg" xmlns:xlink="http://www.w3.org/1999/xlink" overflow="hidden"><g id="Icon-Architecture-Group/32/Auto-Scaling-group_32" stroke="none" stroke-width="1" fill="none" fill-rule="evenodd"><rect x="0" y="0" width="40" height="40" id="Rectangle" fill="#D45B07"/><path d=" M 18.021 19.4953 C 18.021 19.3403 17.95 19.1983 17.833 19.1043 L 14.879 16.1513 L 14.172 16.8583 L 16.31 18.9953 L 7 18.9953 L 7 19.9953 L 16.314 19.9953 L 14.172 22.1373 L 14.879 22.8443 L 17.848 19.8753 C 17.956 19.7813 18.021 19.6433 18.021 19.4953 L 18.021 19.4953 Z M 33.986 18.9953 L 24.675 18.9953 L 26.813 16.8583 L 26.106 16.1513 L 23.137 19.1203 C 23.03 19.2133 22.964 19.3513 22.964 19.4993 C 22.964 19.6543 23.036 19.7973 23.153 19.8903 L 26.106 22.8443 L 26.813 22.1373 L 24.671 19.9953 L 33.986 19.9953 L 33.986 18.9953 Z M 20.996 31.3243 L 20.996 22.0103 L 19.996 22.0103 L 19.996 31.3203 L 17.858 29.1833 L 17.151 29.8903 L 20.12 32.8573 C 20.213 32.9663 20.352 33.0323 20.5 33.0323 C 20.656 33.0323 20.8 32.9593 20.893 32.8413 L 23.844 29.8903 L 23.137 29.1833 L 20.996 31.3243 Z M 17.858 9.83725 L 17.151 9.13025 L 20.103 6.17925 C 20.285 5.94725 20.683 5.93925 20.877 6.16225 L 23.844 9.13025 L 23.137 9.83725 L 20.996 7.69625 L 20.996 17.0103 L 19.996 17.0103 L 19.996 7.70025 L 17.858 9.83725 Z" id="Fill-1" fill="#FFFFFF"/></g></svg>