<svg version="1.1" width="40" height="40" viewBox="0 0 40 40" xmlns="http://www.w3.org/2000/svg" xmlns:xlink="http://www.w3.org/1999/xlink" overflow="hidden"><g id="Icon-Architecture-Group/32/EC2-instance-contents_32" stroke="none" stroke-width="1" fill="none" fill-rule="evenodd"><rect x="0" y="0" width="40" height="40" id="Rectangle" fill="#D45B07"/><path d=" M 10 29 L 29 29 L 29 10 L 10 10 L 10 29 Z M 33 12 L 33 11 L 30 11 L 30 9.5 C 30 9.224 29.776 9 29.5 9 L 28 9 L 28 6 L 27 6 L 27 9 L 24 9 L 24 6 L 23 6 L 23 9 L 20 9 L 20 6 L 19 6 L 19 9 L 16 9 L 16 6 L 15 6 L 15 9 L 12 9 L 12 6 L 11 6 L 11 9 L 9.5 9 C 9.224 9 9 9.224 9 9.5 L 9 11 L 6 11 L 6 12 L 9 12 L 9 15 L 6 15 L 6 16 L 9 16 L 9 19 L 6 19 L 6 20 L 9 20 L 9 23 L 6 23 L 6 24 L 9 24 L 9 27 L 6 27 L 6 28 L 9 28 L 9 29.5 C 9 29.776 9.224 30 9.5 30 L 11 30 L 11 33 L 12 33 L 12 30 L 15 30 L 15 33 L 16 33 L 16 30 L 19 30 L 19 33 L 20 33 L 20 30 L 23 30 L 23 33 L 24 33 L 24 30 L 27 30 L 27 33 L 28 33 L 28 30 L 29.5 30 C 29.776 30 30 29.776 30 29.5 L 30 28 L 33 28 L 33 27 L 30 27 L 30 24 L 33 24 L 33 23 L 30 23 L 30 20 L 33 20 L 33 19 L 30 19 L 30 16 L 33 16 L 33 15 L 30 15 L 30 12 L 33 12 Z" id="Fill-1" fill="#FFFFFF"/></g></svg>