<svg version="1.1" width="40" height="40" viewBox="0 0 40 40" xmlns="http://www.w3.org/2000/svg" xmlns:xlink="http://www.w3.org/1999/xlink" overflow="hidden"><g id="Icon-Architecture-Group/32/AWS-Cloud_32" stroke="none" stroke-width="1" fill="none" fill-rule="evenodd"><rect x="0" y="0" width="40" height="40" id="Rectangle" fill="#242F3E"/><path d=" M 28.993 27.9953 L 11.487 27.9763 C 9.121 27.9743 7.154 26.1293 7.012 23.7753 C 7.004 23.6523 7 23.5263 7 23.3973 C 7 20.2993 9.091 19.2873 10.337 18.9593 C 10.577 18.8963 10.735 18.6663 10.707 18.4193 C 10.676 18.1493 10.659 17.8753 10.659 17.5963 C 10.659 15.1323 12.308 12.4823 14.415 11.5633 C 15.359 11.1503 16.232 10.9863 17.023 10.9863 C 19.276 10.9863 20.867 12.3153 21.561 13.0333 C 22.329 13.8263 22.927 14.8383 23.34 16.0423 C 23.4 16.2193 23.555 16.3473 23.74 16.3743 C 23.918 16.4013 24.109 16.3233 24.219 16.1713 C 24.807 15.3503 25.766 14.9823 26.659 15.2393 C 27.782 15.5603 28.516 16.7273 28.62 18.3073 C 28.578 18.5763 28.759 18.8293 29.027 18.8773 C 30.222 19.0893 33 19.9573 33 23.4403 C 33 27.5893 29.114 27.9823 28.993 27.9953 M 29.594 17.9743 C 29.379 16.0673 28.4 14.6963 26.934 14.2783 C 25.899 13.9823 24.811 14.2453 23.989 14.9503 C 23.553 13.9363 22.979 13.0603 22.28 12.3383 C 20.023 10.0053 16.933 9.37227 14.014 10.6463 C 11.531 11.7303 9.659 14.7183 9.659 17.5963 C 9.659 17.7703 9.665 17.9433 9.676 18.1143 C 8.319 18.5733 6 19.8753 6 23.3973 C 6 23.5493 6.004 23.6963 6.014 23.8383 C 6.188 26.7163 8.593 28.9733 11.486 28.9763 L 29.034 28.9933 C 29.084 28.9893 34 28.5193 34 23.4403 C 34 19.5023 31.003 18.3143 29.594 17.9743" id="Fill-1" fill="#FFFFFF"/></g></svg>