<svg version="1.1" width="40" height="40" viewBox="0 0 40 40" xmlns="http://www.w3.org/2000/svg" xmlns:xlink="http://www.w3.org/1999/xlink" overflow="hidden"><g id="Icon-Architecture-Group/32/Corporate-data-center_32" stroke="none" stroke-width="1" fill="none" fill-rule="evenodd"><rect x="0" y="0" width="40" height="40" id="Rectangle" fill="#596B85"/><path d=" M 12 17 L 15.5 17 C 15.776 17 16 16.776 16 16.5 L 16 7 L 23 7 L 23 16.5 C 23 16.776 23.224 17 23.5 17 L 27 17 L 27 33 L 12 33 L 12 17 Z M 28 33.5 L 28 16.5 C 28 16.224 27.776 16 27.5 16 L 24 16 L 24 6.5 C 24 6.224 23.776 6 23.5 6 L 15.5 6 C 15.224 6 15 6.224 15 6.5 L 15 16 L 11.5 16 C 11.224 16 11 16.224 11 16.5 L 11 33.5 C 11 33.776 11.224 34 11.5 34 L 27.5 34 C 27.776 34 28 33.776 28 33.5 L 28 33.5 Z M 24 31 L 25 31 L 25 29 L 24 29 L 24 31 Z M 19 31 L 20 31 L 20 29 L 19 29 L 19 31 Z M 14 31 L 15 31 L 15 29 L 14 29 L 14 31 Z M 24 27 L 25 27 L 25 24 L 24 24 L 24 27 Z M 19 27 L 20 27 L 20 24 L 19 24 L 19 27 Z M 14 27 L 15 27 L 15 24 L 14 24 L 14 27 Z M 24 22 L 25 22 L 25 19 L 24 19 L 24 22 Z M 19 12 L 20 12 L 20 9 L 19 9 L 19 12 Z M 19 17 L 20 17 L 20 14 L 19 14 L 19 17 Z M 19 22 L 20 22 L 20 19 L 19 19 L 19 22 Z M 14 22 L 15 22 L 15 19 L 14 19 L 14 22 Z" id="Fill-1" fill="#FFFFFF"/></g></svg>