<svg version="1.1" width="40" height="40" viewBox="0 0 40 40" xmlns="http://www.w3.org/2000/svg" xmlns:xlink="http://www.w3.org/1999/xlink" overflow="hidden"><g id="Icon-Architecture-Group/32/Region_32" stroke="none" stroke-width="1" fill="none" fill-rule="evenodd"><rect x="0" y="0" width="40" height="40" id="Rectangle" fill="#127EBA"/><path d=" M 14 20.026 L 14 11.026 L 29.293 11.026 L 25.146 15.172 C 24.951 15.368 24.951 15.684 25.146 15.88 L 29.293 20.026 L 14 20.026 Z M 26.207 15.526 L 30.854 10.88 C 30.996 10.736 31.039 10.522 30.962 10.335 C 30.885 10.148 30.702 10.026 30.5 10.026 L 14 10.026 L 14 8.97 C 14.596 8.76 15.026 8.198 15.026 7.531 C 15.026 6.687 14.34 6 13.495 6 C 12.65 6 11.963 6.687 11.963 7.531 C 11.963 8.201 12.398 8.766 13 8.973 L 13 33.026 L 10 33.026 L 10 34.026 L 17 34.026 L 17 33.026 L 14 33.026 L 14 21.026 L 30.5 21.026 C 30.702 21.026 30.885 20.904 30.962 20.717 C 31.039 20.53 30.996 20.316 30.854 20.172 L 26.207 15.526 Z" id="Fill-1" fill="#FFFFFF"/></g></svg>