<svg version="1.1" width="40" height="40" viewBox="0 0 40 40" xmlns="http://www.w3.org/2000/svg" xmlns:xlink="http://www.w3.org/1999/xlink" overflow="hidden"><defs><linearGradient x1="0%" y1="100%" x2="100%" y2="0%" id="linearGradient-1"><stop offset="0" stop-color="#1B660F"/><stop offset="1" stop-color="#6CAE3E"/></linearGradient></defs><g id="Icon-Architecture/32/Arch_AWS-IoT-Greengrass-Core_32" stroke="none" stroke-width="1" fill="none" fill-rule="evenodd"><g id="Icon-Architecture-BG/32/Internet-of-Things" fill="url(#linearGradient-1)"><rect x="0" y="0" width="40" height="40" id="Rectangle"/></g><path d=" M 11.5 10.0034 C 12.327 10.0034 13 10.6772 13 11.5052 C 13 12.3331 12.327 13.0069 11.5 13.0069 C 10.673 13.0069 10 12.3331 10 11.5052 C 10 10.6772 10.673 10.0034 11.5 10.0034 L 11.5 10.0034 Z M 11.5 14.008 C 12.02 14.008 12.502 13.8479 12.901 13.5756 L 25.295 26.0218 L 24 26.0218 L 24 27.023 L 26.5 27.023 C 26.776 27.023 27 26.7987 27 26.5224 L 27 24.0195 L 26 24.0195 L 26 25.311 L 13.598 12.8567 C 13.85 12.4663 14 12.0037 14 11.5052 C 14 10.1256 12.879 9.0023 11.5 9.0023 C 10.121 9.0023 9 10.1256 9 11.5052 C 9 12.8848 10.121 14.008 11.5 14.008 L 11.5 14.008 Z M 26 22.0172 L 27 22.0172 L 27 19.0138 L 26 19.0138 L 26 22.0172 Z M 26 18.0126 L 27 18.0126 L 27 15.0092 L 26 15.0092 L 26 18.0126 Z M 19 27.023 L 22 27.023 L 22 26.0218 L 19 26.0218 L 19 27.023 Z M 15 27.023 L 18 27.023 L 18 26.0218 L 15 26.0218 L 15 27.023 Z M 8 26.5224 C 8 25.6945 8.673 25.0207 9.5 25.0207 C 10.327 25.0207 11 25.6945 11 26.5224 C 11 27.3504 10.327 28.0241 9.5 28.0241 C 8.673 28.0241 8 27.3504 8 26.5224 L 8 26.5224 Z M 26.5 11.0046 C 25.673 11.0046 25 10.3308 25 9.50287 C 25 8.67492 25.673 8.00115 26.5 8.00115 C 27.327 8.00115 28 8.67492 28 9.50287 C 28 10.3308 27.327 11.0046 26.5 11.0046 L 26.5 11.0046 Z M 28.875 10.2437 C 28.949 10.0075 29 9.76217 29 9.50287 C 29 8.12329 27.879 7 26.5 7 C 25.121 7 24 8.12329 24 9.50287 C 24 10.7113 24.86 11.7224 26 11.9547 L 26 14.008 L 27 14.008 L 27 11.9547 C 27.549 11.8426 28.024 11.5442 28.379 11.1357 C 31.275 13.6436 33 17.0255 33 20.3313 C 33 27.0801 27.034 32.9989 20.233 32.9989 C 16.926 32.9989 13.649 31.3229 11.131 28.4036 C 11.539 28.0482 11.838 27.5726 11.949 27.023 L 14 27.023 L 14 26.0218 L 11.949 26.0218 C 11.717 24.8805 10.708 24.0195 9.5 24.0195 C 8.121 24.0195 7 25.1428 7 26.5224 C 7 27.902 8.121 29.0253 9.5 29.0253 C 9.759 29.0253 10.004 28.9742 10.239 28.9001 C 12.966 32.1379 16.572 34 20.233 34 C 27.567 34 34 27.6127 34 20.3313 C 34 16.6761 32.085 12.9508 28.875 10.2437 L 28.875 10.2437 Z" id="AWS-IoT-Greengrass-Core_Icon_32_Squid" fill="#FFFFFF"/></g></svg>