<svg version="1.1" width="40" height="40" viewBox="0 0 40 40" xmlns="http://www.w3.org/2000/svg" xmlns:xlink="http://www.w3.org/1999/xlink" overflow="hidden"><defs><linearGradient x1="0%" y1="100%" x2="100%" y2="0%" id="linearGradient-1"><stop offset="0" stop-color="#B0084D"/><stop offset="1" stop-color="#FF4F8B"/></linearGradient></defs><g id="Icon-Architecture/32/Arch_AWS-Step-Functions_32" stroke="none" stroke-width="1" fill="none" fill-rule="evenodd"><g id="Icon-Architecture-BG/32/Application-Integration" fill="url(#linearGradient-1)"><rect x="0" y="0" width="40" height="40" id="Rectangle"/></g><path d=" M 23 22 L 33 22 L 33 18 L 23 18 L 23 22 Z M 33.5 17 L 22.5 17 C 22.224 17 22 17.224 22 17.5 L 22 22.5 C 22 22.776 22.224 23 22.5 23 L 33.5 23 C 33.776 23 34 22.776 34 22.5 L 34 17.5 C 34 17.224 33.776 17 33.5 17 L 33.5 17 Z M 22 31.5 C 22 32.327 21.327 33 20.5 33 C 19.673 33 19 32.327 19 31.5 C 19 30.673 19.673 30 20.5 30 C 21.327 30 22 30.673 22 31.5 L 22 31.5 Z M 7 24 L 16 24 L 16 22 L 7 22 L 7 24 Z M 7 18 L 7 16 L 11 16 L 12 16 L 16 16 L 16 18 L 7 18 Z M 19 8.5 C 19 7.673 19.673 7 20.5 7 C 21.327 7 22 7.673 22 8.5 C 22 9.327 21.327 10 20.5 10 C 19.673 10 19 9.327 19 8.5 L 19 8.5 Z M 28 27 L 12 27 L 12 25 L 16.5 25 C 16.776 25 17 24.776 17 24.5 L 17 21.5 C 17 21.224 16.776 21 16.5 21 L 12 21 L 12 19 L 16.5 19 C 16.776 19 17 18.776 17 18.5 L 17 15.5 C 17 15.224 16.776 15 16.5 15 L 12 15 L 12 13 L 28 13 L 28 15 L 29 15 L 29 12.5 C 29 12.224 28.776 12 28.5 12 L 21 12 L 21 10.949 C 22.14 10.717 23 9.707 23 8.5 C 23 7.122 21.879 6 20.5 6 C 19.121 6 18 7.122 18 8.5 C 18 9.707 18.86 10.717 20 10.949 L 20 12 L 11.5 12 C 11.224 12 11 12.224 11 12.5 L 11 15 L 6.5 15 C 6.224 15 6 15.224 6 15.5 L 6 18.5 C 6 18.776 6.224 19 6.5 19 L 11 19 L 11 21 L 6.5 21 C 6.224 21 6 21.224 6 21.5 L 6 24.5 C 6 24.776 6.224 25 6.5 25 L 11 25 L 11 27.5 C 11 27.776 11.224 28 11.5 28 L 20 28 L 20 29.051 C 18.86 29.283 18 30.293 18 31.5 C 18 32.878 19.121 34 20.5 34 C 21.879 34 23 32.878 23 31.5 C 23 30.293 22.14 29.283 21 29.051 L 21 28 L 28.5 28 C 28.776 28 29 27.776 29 27.5 L 29 25 L 28 25 L 28 27 Z" id="AWS_Step_Functions_Icon_32_Squid" fill="#FFFFFF"/></g></svg>