<svg version="1.1" width="40" height="40" viewBox="0 0 40 40" xmlns="http://www.w3.org/2000/svg" xmlns:xlink="http://www.w3.org/1999/xlink" overflow="hidden"><g id="Icon-Architecture-Group/32/AWS-Account_32" stroke="none" stroke-width="1" fill="none" fill-rule="evenodd"><rect x="0" y="0" width="40" height="40" id="Rectangle" fill="#B0084D"/><path d=" M 24.5 22 C 26.43 22 28 23.57 28 25.5 C 28 27.43 26.43 29 24.5 29 C 22.57 29 21 27.43 21 25.5 C 21 23.57 22.57 22 24.5 22 L 24.5 22 Z M 24.5 30 C 26.981 30 29 27.981 29 25.5 C 29 23.019 26.981 21 24.5 21 C 22.019 21 20 23.019 20 25.5 C 20 27.981 22.019 30 24.5 30 L 24.5 30 Z M 26.023 10.88 L 29.084 17 L 22.963 17 L 26.023 10.88 Z M 22.154 18 L 29.893 18 C 30.065 18 30.227 17.91 30.318 17.763 C 30.409 17.615 30.417 17.432 30.34 17.276 L 26.471 9.538 C 26.301 9.2 25.746 9.2 25.576 9.538 L 21.707 17.276 C 21.63 17.432 21.638 17.615 21.729 17.763 C 21.82 17.91 21.981 18 22.154 18 L 22.154 18 Z M 11 23 L 18 23 L 18 16 L 11 16 L 11 23 Z M 10.5 24 L 18.5 24 C 18.776 24 19 23.776 19 23.5 L 19 15.5 C 19 15.224 18.776 15 18.5 15 L 10.5 15 C 10.224 15 10 15.224 10 15.5 L 10 23.5 C 10 23.776 10.224 24 10.5 24 L 10.5 24 Z M 8 32 L 32 32 L 32 8 L 8 8 L 8 32 Z M 32.5 7 L 7.5 7 C 7.224 7 7 7.224 7 7.5 L 7 32.5 C 7 32.776 7.224 33 7.5 33 L 32.5 33 C 32.776 33 33 32.776 33 32.5 L 33 7.5 C 33 7.224 32.776 7 32.5 7 L 32.5 7 Z" id="Fill-1" fill="#FFFFFF"/></g></svg>