<svg version="1.1" width="40" height="40" viewBox="0 0 40 40" xmlns="http://www.w3.org/2000/svg" xmlns:xlink="http://www.w3.org/1999/xlink" overflow="hidden"><defs><filter id="filter-1" color-interpolation-filters="linearRGB" x="-10%" y="-10%" width="120%" height="120%" filterUnits="objectBoundingBox" primitiveUnits="userSpaceOnUse"><feColorMatrix in="SourceGraphic" type="matrix" values="0 0 0 0 1 0 0 0 0 1 0 0 0 0 1 0 0 0 1 0 "/></filter><path d=" M 0 0 L 26.9996 0 L 26.9996 27 L 0 27 Z" id="path-2"/></defs><g id="Icon-Architecture-Group/32/Spot-Fleet_32" stroke="none" stroke-width="1" fill="none" fill-rule="evenodd"><rect x="0" y="0" width="40" height="40" id="Rectangle" fill="#D45B07"/><g id="Group-3" filter="url(#filter-1)"><g transform="matrix(1,0,0,1,6,6)"><mask id="mask-3" fill="#FFFFFF"><use width="100%" height="100%" xlink:href="#path-2"></use></mask><g id="Clip-2"></g><path d=" M 1.1396 14 L -0.0004 14 L -0.0004 13 L 1.1396 13 C 1.2366 10.558 2.0276 8.233 3.4606 6.252 L 4.2716 6.838 C 2.9616 8.647 2.2356 10.77 2.1396 13 L 2.9996 13 L 2.9996 14 L 2.1396 14 C 2.2356 16.23 2.9616 18.353 4.2716 20.162 L 3.4606 20.748 C 2.0276 18.767 1.2366 16.442 1.1396 14 L 1.1396 14 Z M 20.7476 23.539 C 18.7666 24.973 16.4426 25.764 13.9996 25.86 L 13.9996 27 L 12.9996 27 L 12.9996 25.86 C 10.5576 25.764 8.2336 24.973 6.2516 23.539 L 6.8376 22.729 C 8.6476 24.038 10.7696 24.765 12.9996 24.86 L 12.9996 24 L 13.9996 24 L 13.9996 24.86 C 16.2306 24.765 18.3526 24.038 20.1616 22.729 L 20.7476 23.539 Z M 6.2516 3.461 C 8.2336 2.027 10.5576 1.236 12.9996 1.14 L 12.9996 0 L 13.9996 0 L 13.9996 1.14 C 16.4426 1.236 18.7666 2.027 20.7476 3.461 L 20.1616 4.271 C 18.3526 2.962 16.2306 2.235 13.9996 2.14 L 13.9996 3 L 12.9996 3 L 12.9996 2.14 C 10.7696 2.235 8.6476 2.962 6.8376 4.271 L 6.2516 3.461 Z M 26.9996 14 L 25.8606 14 C 25.7636 16.442 24.9726 18.767 23.5386 20.748 L 22.7286 20.162 C 24.0376 18.353 24.7646 16.23 24.8606 14 L 23.9996 14 L 23.9996 13 L 24.8606 13 C 24.7646 10.77 24.0376 8.647 22.7286 6.838 L 23.5386 6.252 C 24.9726 8.233 25.7636 10.558 25.8606 13 L 26.9996 13 L 26.9996 14 Z M 20.7056 5.587 L 24.4866 1.807 L 25.1936 2.514 L 21.4126 6.294 L 20.7056 5.587 Z M 6.2936 21.413 L 2.5136 25.193 L 1.8066 24.486 L 5.5866 20.706 L 6.2936 21.413 Z M 18.1736 17.467 L 25.1936 24.486 L 24.4866 25.193 L 17.4666 18.174 L 18.1736 17.467 Z M 8.8266 9.533 L 1.8066 2.514 L 2.5136 1.807 L 9.5336 8.826 L 8.8266 9.533 Z M 18.9996 13 L 18.9996 8 L 13.9996 8 L 13.9996 9 L 12.9996 9 L 12.9996 7.751 C 12.9996 7.337 13.3366 7 13.7506 7 L 19.2486 7 C 19.6626 7 19.9996 7.337 19.9996 7.751 L 19.9996 13.249 C 19.9996 13.663 19.6626 14 19.2486 14 L 17.9996 14 L 17.9996 13 L 18.9996 13 Z M 7.9996 14 L 7.9996 19 L 12.9996 19 L 12.9996 18 L 13.9996 18 L 13.9996 19.249 C 13.9996 19.663 13.6626 20 13.2486 20 L 7.7506 20 C 7.3366 20 6.9996 19.663 6.9996 19.249 L 6.9996 13.751 C 6.9996 13.337 7.3366 13 7.7506 13 L 8.9996 13 L 8.9996 14 L 7.9996 14 Z M 10.9996 16 L 15.9996 16 L 15.9996 11 L 10.9996 11 L 10.9996 16 Z M 16.9996 16.129 L 16.9996 10.871 C 16.9996 10.391 16.6096 10 16.1286 10 L 10.8706 10 C 10.3906 10 9.9996 10.391 9.9996 10.871 L 9.9996 16.129 C 9.9996 16.609 10.3906 17 10.8706 17 L 16.1286 17 C 16.6096 17 16.9996 16.609 16.9996 16.129 L 16.9996 16.129 Z" id="Fill-1" fill="#232F3E" mask="url(#mask-3)"/></g></g></g></svg>