<svg version="1.1" width="40" height="40" viewBox="0 0 40 40" xmlns="http://www.w3.org/2000/svg" xmlns:xlink="http://www.w3.org/1999/xlink" overflow="hidden"><g id="Icon-Architecture-Group/32/Public-subnet_32" stroke="none" stroke-width="1" fill="none" fill-rule="evenodd"><rect x="0" y="0" width="40" height="40" id="Rectangle" fill="#3F8624"/><path d=" M 19.536 22.049 C 20.642 22.049 21.542 22.948 21.542 24.054 C 21.542 25.16 20.642 26.06 19.536 26.06 C 18.43 26.06 17.53 25.16 17.53 24.054 C 17.53 22.948 18.43 22.049 19.536 22.049 L 19.536 22.049 Z M 19.012 27.007 L 19.012 30.501 L 20.012 30.501 L 20.012 27.012 C 21.442 26.782 22.542 25.549 22.542 24.054 C 22.542 22.397 21.193 21.049 19.536 21.049 C 17.879 21.049 16.53 22.397 16.53 24.054 C 16.53 25.532 17.604 26.757 19.012 27.007 L 19.012 27.007 Z M 10 33.014 L 29.012 33.014 L 29.012 18 L 10 18 L 10 33.014 Z M 14.046 12.484 C 14.046 9.46 16.506 7 19.529 7 C 22.553 7 25.012 9.46 25.012 12.484 L 25.012 17 L 14.046 17 L 14.046 12.484 Z M 29.512 17 L 26.012 17 L 26.012 12.484 C 26.012 8.908 23.103 6 19.529 6 C 15.954 6 13.046 8.908 13.046 12.484 L 13.046 17 L 9.5 17 C 9.223 17 9 17.224 9 17.5 L 9 33.514 C 9 33.79 9.223 34.014 9.5 34.014 L 29.512 34.014 C 29.788 34.014 30.012 33.79 30.012 33.514 L 30.012 17.5 C 30.012 17.224 29.788 17 29.512 17 L 29.512 17 Z" id="Fill-1" fill="#FFFFFF"/></g></svg>